PathFileType	4	(X/Y/Z)	22_1_32_p1_0-145_filt_butterworth.trc
DataRate	CameraRate	NumFrames	NumMarkers	Units	OrigDataRate	OrigDataStartFrame	OrigNumFrames
59.0	59.0	5	27	m	59.0	108	145
Frame#	Time	RHip			RKnee			RAnkle			RBigToe			RSmallToe			RHeel			LHip			LKnee			LAnkle			LBigToe			LSmallToe			LHeel			Neck			Head			Nose			RShoulder			RElbow			RWrist			RThumb			RIndex			RPinky			LShoulder			LElbow			LWrist			LThumb			LIndex			LPinky			
		X1	Y1	Z1	X2	Y2	Z2	X3	Y3	Z3	X4	Y4	Z4	X5	Y5	Z5	X6	Y6	Z6	X7	Y7	Z7	X8	Y8	Z8	X9	Y9	Z9	X10	Y10	Z10	X11	Y11	Z11	X12	Y12	Z12	X13	Y13	Z13	X14	Y14	Z14	X15	Y15	Z15	X16	Y16	Z16	X17	Y17	Z17	X18	Y18	Z18	X19	Y19	Z19	X20	Y20	Z20	X21	Y21	Z21	X22	Y22	Z22	X23	Y23	Z23	X24	Y24	Z24	X25	Y25	Z25	X26	Y26	Z26	X27	Y27	Z27	
108	1.8305084745762712	0.24785886518978698	0.6454675354683074	1.0334599086619087	0.2619557950293199	0.7384668288672678	1.422751541532913	0.2924716357198316	0.911525692503169	1.8317915494868295	0.24804893096252184	0.7058068659497572	1.8804251062987016	0.31001632603521745	0.7369711937879079	1.875888664158436	0.2911616844671219	0.9995504712096941	1.8956867938043895	0.03695520493953437	0.6917808282683021	1.0423284742259646	0.0690352269309628	0.7803273377920029	1.4232762992883823	0.09856798986926744	0.9162153028068984	1.8515385258328112	0.09804848536402472	0.7208867801391836	1.8828497016257184	0.04971442305694199	0.7658162930180762	1.8785414799413338	0.12544182781898738	0.952995654071409	1.8823298852517698	0.08963553452252768	0.4996732445205223	0.48012770813055144	0.06660855124764214	0.31784011962183867	0.25082039771194176	0.06523270799547193	0.32619273479360866	0.4090017607504162	0.24895861229888075	0.45792806991934165	0.5488287245602453	0.3700367897964653	0.4965854331593249	0.7917252803498451	0.24244396729281198	0.4502921013083902	0.9877346732345046	0.11542343240483537	0.444001885716253	1.097842232373091	0.1340502399004978	0.45014084960195366	1.1350439310609914	0.18852738539336425	0.4131549715183243	1.138244038637759	-0.0533132344381519	0.5256959212918507	0.5462725115449251	-0.10624774136780857	0.7132238964440571	0.7539188901331476	-0.18244437343546682	0.6227559351317515	0.9138721388973227	-0.17328035191273805	0.5481765045717296	1.0153123798836288	-0.23102929937345562	0.5424782428000983	1.0201190442082833	-0.23647337470291985	0.5877338702347394	1.024822178189227
109	1.847457627118644	0.2447484042249602	0.6457164678441294	1.0341311004474592	0.2616292310082633	0.7377653715413222	1.4221940464910623	0.2924624333483625	0.9116963746345065	1.8321181438858956	0.24676831823941428	0.7027748007597441	1.87922273854824	0.30994711294033817	0.7374216887679554	1.8748497636990744	0.2913072014622968	0.9999893771854371	1.8959626204261122	0.03711175172304157	0.6909513878141813	1.0417300974312416	0.06943632546001052	0.7805865133748419	1.4232942512891869	0.09863745044189319	0.9163592458758721	1.8520892947061944	0.09680379553182959	0.7145803969620063	1.8805626058424727	0.05060098103920964	0.7647669614087483	1.8777859178002703	0.1262685988581311	0.9526285484173334	1.8822883567679898	0.09097835240800882	0.499768215671531	0.48040235417288496	0.06872221556171626	0.31804918952025774	0.25055548888601753	0.06589131509568563	0.3262019162785789	0.408968183860673	0.24955042073402023	0.4596088039329028	0.5502891677435253	0.3702702691731675	0.4974240368465281	0.7946709560172022	0.24500319280093444	0.4535337167069901	0.993727054673617	0.11968915586584272	0.444789564425471	1.1158065685317469	0.1408716682970301	0.43327162678408704	1.1393445337043908	0.19277363571421005	0.41995756556298225	1.1432345046778833	-0.05383628008853942	0.524099055338566	0.5477092327574944	-0.10830944240075269	0.7076777425118058	0.7583094755788754	-0.17831199878800744	0.6182193698307975	0.9285691496587953	-0.16577063956869648	0.5610727472819673	1.033492183278558	-0.22537397361591777	0.5397258895239483	1.0404580959747471	-0.23626708581624034	0.5880912141313535	1.0445309744977695
110	1.8644067796610169	0.24199214971665894	0.6458028549671502	1.0351931780136425	0.2619370987450401	0.7376679398851755	1.4220830858684126	0.29240196729308937	0.9119600144425085	1.8326808346126482	0.24611042639459102	0.7012354058231604	1.8786708000358314	0.309829985562263	0.7371156905698533	1.874314301808327	0.2913675353528498	1.0001880619127745	1.8962015524175952	0.03730798476551411	0.6900409199738728	1.0418540416301658	0.06960332754455371	0.7809334332594744	1.4233394832463093	0.09863804724935499	0.9164168635729231	1.8521712196955573	0.0962523085276151	0.7128736208161083	1.8799634407381274	0.051720831606434	0.7670936627525734	1.879343906559066	0.12493598543159813	0.9520562115547903	1.8820680846739766	0.09201405215009481	0.49969252809070963	0.48134826423779287	0.07079595970768218	0.31820158146580474	0.25053137923752916	0.0668799334062456	0.3263968472916322	0.4089162206972844	0.25114216538904227	0.46341177592736826	0.5519248470852608	0.36985653129839735	0.4975025820844572	0.7985630095375481	0.24559503255732593	0.45446773978733845	1.0005284838375685	0.12320845185274916	0.4438995573586872	1.1289618071382297	0.14674963555566667	0.4190993263485747	1.1410136712160164	0.19634207305302473	0.42300164435547194	1.147686620026215	-0.054864955250888525	0.5202731982034823	0.5491931529647498	-0.11166616747795396	0.708995261983092	0.7615217037126556	-0.1717380003356015	0.6088897165666333	0.9435695799397272	-0.15624481857611083	0.5716912291703735	1.05585280154827	-0.21479184852893168	0.5350919419515655	1.0651441311063594	-0.2325994324518757	0.5904484874187936	1.0675158135561678
111	1.88135593220339	0.24036571485285532	0.6458001709122927	1.0360742431087488	0.26258997587007754	0.7378109588078484	1.4221729567485168	0.29235139544456934	0.9121440736651205	1.8330663191888719	0.24600293909015689	0.7009074801012201	1.8786133849000535	0.30990382996904536	0.7367972421269403	1.8742428706083756	0.2913623683100185	1.0001219805857424	1.8962336227412224	0.03722103986939258	0.6896053785926013	1.0421207683219753	0.06966221958560387	0.7811937536633005	1.4233718283900372	0.09865395404378309	0.9164911327649703	1.8521857051385053	0.09667683489422511	0.7147903118859147	1.880690658340331	0.052705307351214634	0.7702018865153877	1.8822966891325326	0.12233108158911894	0.9526088416479315	1.8817419917895886	0.09270693803337297	0.4991122793834436	0.4826745371213673	0.07257411664262345	0.31823162930725346	0.25127114272043416	0.06820843476631024	0.3266417094836185	0.40884715015305867	0.2532594218364952	0.46823189822900274	0.5532282698922745	0.3677449231525117	0.4953559833868761	0.8015482346699572	0.24468476348222945	0.45344145922134993	1.0083975724491026	0.1247594896230851	0.44064216861304545	1.1358013014775044	0.15043385360325517	0.40998071884137816	1.1423774702783602	0.1978889398343893	0.422694272832947	1.1529193291308564	-0.055845044890972514	0.515595517728395	0.5510329767753152	-0.11546276902937584	0.7145646322754093	0.7653276203538364	-0.16429663205690107	0.5956100457524529	0.960405184835787	-0.14741565273873153	0.5741212780519358	1.0767691150486234	-0.19992867239198955	0.5292246960775118	1.0862609751801864	-0.22211854987767007	0.5940350624253203	1.0885908643577935
112	1.8983050847457628	0.23985472599176247	0.645796510519979	1.0364966515542893	0.2629754877451246	0.7377629224085045	1.4222403491524251	0.29232613706015864	0.9121821393498153	1.8331635701953257	0.246560977523184	0.702053831268326	1.8790625128124707	0.31066835854978053	0.7380011041149858	1.8747545058253166	0.29131552127277305	0.9999766312673056	1.8957528532979608	0.03656121523230044	0.6912240859911674	1.0428395219113638	0.06978431570050056	0.7815657271235713	1.4234511665339782	0.09876251315423143	0.91653650705328	1.8521232562366123	0.09802153130458409	0.7193832621604139	1.8823641804683036	0.05319573092841537	0.7722781176347417	1.8849002440087106	0.12107311965629727	0.9554918113331079	1.8814530218234131	0.09355505744906308	0.4974314466422358	0.4837474777424934	0.0740474072557274	0.3182313469601644	0.2530495455380082	0.06926672715458482	0.326835879135189	0.40880267733922715	0.2548459765424273	0.47179688623788624	0.5539273048602184	0.3639892355705132	0.4904752985574292	0.8027909988783953	0.24237190417601256	0.4508499505342427	1.0163966928738437	0.12408713795572934	0.436117942136842	1.1380062978433285	0.15045290410094206	0.40670064282116003	1.144243642565292	0.19711675553022234	0.42083891924660277	1.1595750838806098	-0.056407218524972824	0.5123286759508576	0.5532048241286278	-0.11810249374197382	0.7168843113739043	0.7713144362662165	-0.15758771229269233	0.581673199481586	0.9781157773251817	-0.13806887069909562	0.562713474659345	1.0904993936992706	-0.18183964793405347	0.5243327839285864	1.099954543644287	-0.20351142525877453	0.5971041901820766	1.1047476823108069
